<svg width="200" height="30" viewBox="0 0 200 30" fill="none" xmlns="http://www.w3.org/2000/svg">
<path fill-rule="evenodd" clip-rule="evenodd" d="M15 29.9401C23.2843 29.9401 30 23.2378 30 14.9701C30 6.70233 23.2843 0 15 0C6.71573 0 0 6.70233 0 14.9701C0 23.2378 6.71573 29.9401 15 29.9401Z" fill="#73C1E8"/>
<path fill-rule="evenodd" clip-rule="evenodd" d="M21 29.9401C29.2843 29.9401 36 23.2378 36 14.9701C36 6.70233 29.2843 0 21 0C12.7157 0 6 6.70233 6 14.9701C6 23.2378 12.7157 29.9401 21 29.9401Z" fill="#F54949"/>
<path fill-rule="evenodd" clip-rule="evenodd" d="M15 29.9401C23.2843 29.9401 30 23.2378 30 14.9701C30 6.70233 23.2843 0 15 0C6.71573 0 0 6.70233 0 14.9701C0 23.2378 6.71573 29.9401 15 29.9401Z" fill="#73C1E8"/>
<mask id="mask0_670_4517" style="mask-type:luminance" maskUnits="userSpaceOnUse" x="0" y="0" width="30" height="30">
<path fill-rule="evenodd" clip-rule="evenodd" d="M15 29.9401C23.2843 29.9401 30 23.2378 30 14.9701C30 6.70233 23.2843 0 15 0C6.71573 0 0 6.70233 0 14.9701C0 23.2378 6.71573 29.9401 15 29.9401Z" fill="white"/>
</mask>
<g mask="url(#mask0_670_4517)">
<path d="M18 0.299683C24.8467 1.68673 30 7.7282 30 14.9706C29.9998 22.2127 24.8465 28.2524 18 29.6395C11.1535 28.2524 6.00022 22.2127 6 14.9706C6 7.7282 11.1533 1.68673 18 0.299683Z" fill="#734949"/>
<rect x="6" y="14.9701" width="2" height="14.9701" fill="#734949"/>
</g>
<path d="M50.3485 24.207C45.6105 24.207 42.3445 20.55 42.3445 15.95C42.3445 11.327 45.6105 7.693 50.3485 7.693C55.0865 7.693 58.3525 11.327 58.3525 15.95C58.3525 20.55 55.0865 24.207 50.3485 24.207ZM50.3485 22.321C54.0055 22.321 56.2825 19.331 56.2825 15.95C56.2825 12.569 54.0055 9.579 50.3485 9.579C46.6685 9.579 44.4145 12.569 44.4145 15.95C44.4145 19.331 46.6685 22.321 50.3485 22.321ZM60.1955 29.497V12.247H62.1275V13.811C62.8865 12.776 64.2895 12.04 66.0605 12.04C69.2575 12.04 71.6725 14.34 71.6725 18.135C71.6725 21.608 69.3035 24.207 66.0605 24.207C64.3125 24.207 62.8405 23.425 62.1275 22.367V29.497H60.1955ZM65.9225 22.436C68.2915 22.436 69.7175 20.458 69.7175 18.135C69.7175 15.789 68.2915 13.811 65.9225 13.811C63.5305 13.811 62.0815 15.789 62.0815 18.135C62.0815 20.458 63.5305 22.436 65.9225 22.436ZM78.0671 24.207C74.6401 24.207 72.3631 21.585 72.3631 18.135C72.3631 14.639 74.6631 12.04 78.0901 12.04C81.3331 12.04 83.4951 14.639 83.4951 17.767V18.802H74.3411C74.5711 21.332 76.1581 22.436 78.1361 22.436C79.7691 22.436 80.9881 21.516 81.4941 20.458L82.9431 21.263C82.3221 22.597 80.6891 24.207 78.0671 24.207ZM74.4101 17.1H81.4941C81.4941 15.352 80.1141 13.765 78.0901 13.765C76.2041 13.765 74.7551 14.984 74.4101 17.1ZM85.2305 24V12.247H87.1625V13.719C87.7835 12.73 88.9105 12.04 90.5895 12.04C93.1195 12.04 94.9825 13.995 94.9825 16.64V24H93.0505V16.985C93.0505 14.961 91.7625 13.811 90.1065 13.811C88.4735 13.811 87.1625 15.053 87.1625 16.985V24H85.2305ZM97.6271 24V7.9H103.446C106.689 7.9 108.667 10.361 108.667 12.983C108.667 15.651 106.781 18.158 103.446 18.158H99.6281V24H97.6271ZM103.216 16.318C105.378 16.318 106.597 14.846 106.597 12.983C106.597 11.212 105.309 9.717 103.216 9.717H99.6281V16.318H103.216ZM109.951 15.95C109.951 13.995 110.963 12.247 113.723 12.247H116.161V13.995H113.838C112.573 13.995 111.883 14.616 111.883 16.019V24H109.951V15.95ZM122.394 24.207C118.852 24.207 116.391 21.585 116.391 18.135C116.391 14.685 118.898 12.04 122.394 12.04C125.913 12.04 128.397 14.685 128.397 18.135C128.397 21.562 125.959 24.207 122.394 24.207ZM122.394 22.436C124.671 22.436 126.442 20.688 126.442 18.135C126.442 15.582 124.671 13.811 122.394 13.811C120.117 13.811 118.346 15.582 118.346 18.135C118.346 20.688 120.14 22.436 122.394 22.436ZM135.057 24.207C131.676 24.207 129.077 21.769 129.077 18.089C129.077 14.409 131.653 12.04 135.057 12.04C138.047 12.04 139.519 13.857 140.025 15.145L138.369 15.996C138.001 14.823 136.874 13.811 135.034 13.811C132.642 13.811 131.032 15.559 131.032 18.089C131.032 20.596 132.619 22.436 135.011 22.436C136.851 22.436 138.024 21.355 138.392 20.205L140.048 21.056C139.565 22.321 138.024 24.207 135.057 24.207ZM146.434 24.207C143.007 24.207 140.73 21.585 140.73 18.135C140.73 14.639 143.03 12.04 146.457 12.04C149.7 12.04 151.862 14.639 151.862 17.767V18.802H142.708C142.938 21.332 144.525 22.436 146.503 22.436C148.136 22.436 149.355 21.516 149.861 20.458L151.31 21.263C150.689 22.597 149.056 24.207 146.434 24.207ZM142.777 17.1H149.861C149.861 15.352 148.481 13.765 146.457 13.765C144.571 13.765 143.122 14.984 142.777 17.1ZM157.231 24.207C154.448 24.207 153.114 22.689 152.562 21.286L154.149 20.458C154.54 21.493 155.529 22.482 157.3 22.482C158.818 22.482 159.784 21.815 159.784 20.734C159.784 20.044 159.393 19.469 158.128 19.055L156.357 18.48C154.609 17.905 153.413 17.031 153.413 15.306C153.413 13.328 155.115 12.04 157.622 12.04C160.29 12.04 161.371 13.581 161.693 14.57L160.083 15.352C159.83 14.57 159.094 13.719 157.553 13.719C156.219 13.719 155.276 14.294 155.276 15.26C155.276 16.088 155.943 16.479 156.932 16.801L158.657 17.353C160.75 18.02 161.739 19.17 161.739 20.757C161.739 22.873 159.945 24.207 157.231 24.207ZM167.087 24.207C164.304 24.207 162.97 22.689 162.418 21.286L164.005 20.458C164.396 21.493 165.385 22.482 167.156 22.482C168.674 22.482 169.64 21.815 169.64 20.734C169.64 20.044 169.249 19.469 167.984 19.055L166.213 18.48C164.465 17.905 163.269 17.031 163.269 15.306C163.269 13.328 164.971 12.04 167.478 12.04C170.146 12.04 171.227 13.581 171.549 14.57L169.939 15.352C169.686 14.57 168.95 13.719 167.409 13.719C166.075 13.719 165.132 14.294 165.132 15.26C165.132 16.088 165.799 16.479 166.788 16.801L168.513 17.353C170.606 18.02 171.595 19.17 171.595 20.757C171.595 22.873 169.801 24.207 167.087 24.207ZM173.309 24V12.247H175.241V24H173.309ZM174.275 10.407C173.401 10.407 172.734 9.74 172.734 8.866C172.734 7.992 173.401 7.325 174.275 7.325C175.149 7.325 175.816 7.992 175.816 8.866C175.816 9.74 175.149 10.407 174.275 10.407ZM177.999 24V12.247H179.931V13.719C180.552 12.73 181.679 12.04 183.358 12.04C185.888 12.04 187.751 13.995 187.751 16.64V24H185.819V16.985C185.819 14.961 184.531 13.811 182.875 13.811C181.242 13.811 179.931 15.053 179.931 16.985V24H177.999ZM193.96 18.227C195.248 18.227 196.26 17.33 196.26 15.95C196.26 14.57 195.248 13.65 193.96 13.65C192.672 13.65 191.637 14.57 191.637 15.95C191.637 17.33 192.672 18.227 193.96 18.227ZM194.006 29.704C190.901 29.704 188.785 27.634 188.785 25.104C188.785 22.85 190.464 20.941 193.017 20.527V19.745C191.016 19.377 189.797 17.859 189.797 15.95C189.797 13.742 191.43 12.04 193.96 12.04C194.719 12.04 195.409 12.201 195.984 12.477L197.065 11.189L198.307 12.224L197.249 13.489C197.778 14.133 198.1 15.007 198.1 15.95C198.1 17.859 196.881 19.4 194.88 19.768V20.527C197.456 20.872 199.227 22.827 199.227 25.104C199.227 27.588 197.134 29.704 194.006 29.704ZM194.006 27.979C196.007 27.979 197.272 26.783 197.272 25.104C197.272 23.402 196.007 22.206 194.006 22.206C192.005 22.206 190.74 23.402 190.74 25.104C190.74 26.783 192.005 27.979 194.006 27.979Z" fill="#333333"/>
</svg>